<?xml version="1.0" encoding="UTF-8"?>
<svg id="Calque_1" data-name="Calque 1" xmlns="http://www.w3.org/2000/svg" viewBox="0 0 660.48 494.29">
  <polygon class="cls-1" points="106.53 493.9 .39 293.49 49.98 267.66 156.38 466.52 106.53 493.9"/>
  <polygon class="cls-1" points="137.43 219.6 244.22 420.91 201.2 445.46 139.19 398.54 83.55 294.73 146.2 342.55 92.1 243.76 137.43 219.6"/>
  <polygon class="cls-1" points="368.12 354.35 274.61 405.36 209.33 283.26 302.97 233.86 327.13 276.81 273.16 305.08 292.31 342.43 344.99 312.36 368.12 354.35"/>
  <polygon class="cls-1" points="243.86 252.53 230.95 225.35 285.37 199.15 261.21 153.81 167.7 204.83 203.68 274.37 243.86 252.53"/>
  <polygon class="cls-1" points="481.05 182.73 527.31 271.47 392.97 343.43 369.71 302.21 470.82 248.5 464.4 234.72 429.11 251.03 410.21 221.67 481.05 182.73"/>
  <polygon class="cls-1" points="442.5 114.34 353.63 161.37 406.18 264.66 362.13 285.86 285.55 141.22 421.43 69.52 442.5 114.34"/>
  <polygon class="cls-1" points="553.7 .39 447.06 58.73 469.55 99.82 575.67 44.56 553.7 .39"/>
  <polygon class="cls-1" points="517.31 94.33 477.13 116.17 521.14 199.37 561.9 178.82 551.24 157.18 617.05 124.55 594.31 80.24 528.88 115.32 517.31 94.33"/>
  <polygon class="cls-1" points="531.23 214.96 636.58 159.58 660.1 204.01 553.2 259.14 531.23 214.96"/>
</svg>